<svg width="100" height="100" viewBox="0 0 100 100" xmlns="http://www.w3.org/2000/svg">
  <defs>
    <pattern id="finnish-pattern" patternUnits="userSpaceOnUse" width="100" height="100">
      <rect width="100" height="100" fill="#f8f8f8"/>
      <path d="M0,0 L20,0 L20,20 L0,20 Z" fill="#0066CC" opacity="0.05"/>
      <path d="M50,0 L70,0 L70,20 L50,20 Z" fill="#0066CC" opacity="0.05"/>
      <path d="M25,25 L45,25 L45,45 L25,45 Z" fill="#0066CC" opacity="0.05"/>
      <path d="M75,25 L95,25 L95,45 L75,45 Z" fill="#0066CC" opacity="0.05"/>
      <path d="M0,50 L20,50 L20,70 L0,70 Z" fill="#0066CC" opacity="0.05"/>
      <path d="M50,50 L70,50 L70,70 L50,70 Z" fill="#0066CC" opacity="0.05"/>
      <path d="M25,75 L45,75 L45,95 L25,95 Z" fill="#0066CC" opacity="0.05"/>
      <path d="M75,75 L95,75 L95,95 L75,95 Z" fill="#0066CC" opacity="0.05"/>
    </pattern>
  </defs>
  <rect width="100" height="100" fill="url(#finnish-pattern)"/>
</svg>
